# xmcd CD database file
#
# Track frame offsets:
#	150
#	15186
#	29514
#	78892
#	95772
#	113150
#	128995
#	139324
#	156185
#	170781
#
# Disc length: 2520 seconds
#
# Revision: 0
# Processed by: cddbd v1.5.1PL0 Copyright (c) Steve Scherf et al.
# Submitted via: CDex 1.50Beta7
#
DISCID=7f09d60a
DTITLE=Miles Davis - The Story Of Jazz
DYEAR=2000
DGENRE=Jazz
TTITLE0=Moon Dreams
TTITLE1=Venus De Milo
TTITLE2=Autumn Leaves
TTITLE3=Yesterdays
TTITLE4=Dear Old Stockholm
TTITLE5=I Waited For You
TTITLE6=Israel
TTITLE7=How Deep Is The Ocean
TTITLE8=Rouge
TTITLE9=It Never Entered My Mind
EXTD=YEAR: 2000
EXTT0=
EXTT1=
EXTT2=
EXTT3=
EXTT4=
EXTT5=
EXTT6=
EXTT7=
EXTT8=
EXTT9=
PLAYORDER=
